PathFileType	4	(X/Y/Z)	C:\Users\dbl\Desktop\20210112(1)\20210112\bx_y_10_1801.trc
DataRate	CameraRate	NumFrames	NumMarkers	Units	OrigDataRate	OrigDataStartFrame	OrigNumFrames
50.00	50.00	       7	43	mm	50.00	235	       468
Frame#	Time	Top.Head			R.Acromium			L.Acromium			Sternum			R.ASIS			L.ASIS			V.Sacral			R.Thigh.Upper			R.Thigh.Front			R.Thigh.Rear			R.Knee.Lat			R.Knee.Med			R.Shank.Upper			R.Shank.Front			R.Shank.Rear			R.Ankle.Lat			R.Midfoot.Lat			R.Toe.Lat			R.Toe.Tip			R.Toe.Med			R.Ankle.Med			R.Midfoot.Sup			R.Heel			L.Thigh.Upper			L.Thigh.Front			L.Thigh.Rear			L.Knee.Lat			L.Knee.Med			L.Shank.Upper			L.Shank.Front			L.Shank.Rear			L.Ankle.Lat			L.Midfoot.Lat			L.Toe.Lat			L.Toe.Tip			L.Toe.Med			L.Ankle.Med			L.Midfoot.Sup			L.Heel			origin1 front left			origin2 front right			origin 3 back right			origin 4 back leftt			
		X1	Y1	Z1	X2	Y2	Z2	X3	Y3	Z3	X4	Y4	Z4	X5	Y5	Z5	X6	Y6	Z6	X7	Y7	Z7	X8	Y8	Z8	X9	Y9	Z9	X10	Y10	Z10	X11	Y11	Z11	X12	Y12	Z12	X13	Y13	Z13	X14	Y14	Z14	X15	Y15	Z15	X16	Y16	Z16	X17	Y17	Z17	X18	Y18	Z18	X19	Y19	Z19	X20	Y20	Z20	X21	Y21	Z21	X22	Y22	Z22	X23	Y23	Z23	X24	Y24	Z24	X25	Y25	Z25	X26	Y26	Z26	X27	Y27	Z27	X28	Y28	Z28	X29	Y29	Z29	X30	Y30	Z30	X31	Y31	Z31	X32	Y32	Z32	X33	Y33	Z33	X34	Y34	Z34	X35	Y35	Z35	X36	Y36	Z36	X37	Y37	Z37	X38	Y38	Z38	X39	Y39	Z39	X40	Y40	Z40	X41	Y41	Z41	X42	Y42	Z42	X43	Y43	Z43	

235	4.680	-621.59833	67.48244	1835.57605	-677.40735	-110.28879	1530.71924	-693.20306	244.81502	1535.86450	-630.09351	67.11012	1407.26819	-693.48010	-28.72234	1052.95398	-692.87048	194.84592	1074.20447	-914.40735	74.05389	1082.50317	-734.03113	-86.53430	870.92151	-653.61902	-26.84309	821.94781	-739.41150	-62.83080	714.35931	-712.18817	-43.93574	617.97577	-681.32965	63.78831	581.66534	-715.62286	-40.27564	566.15839	-662.79443	-0.73893	519.76740	-765.44690	-45.17446	487.83115	-771.36786	-10.87884	205.86761	-666.26764	-72.34499	158.62987	-623.81128	-82.08236	156.52657	-562.84204	-38.97509	163.73265	-605.10443	15.93704	170.99239	-717.64471	69.89108	217.59454	-676.86273	50.77980	162.36885	-796.07074	51.72034	175.29413	-723.34503	272.75967	887.07062	-662.52838	204.31696	835.48218	-747.35950	268.64288	754.25146	-751.43323	243.83383	638.98730	-694.72229	141.69853	583.76447	-741.09186	240.59213	578.89075	-681.26453	204.33466	539.19440	-779.20288	250.05026	503.29871	-772.73987	224.11343	204.36102	-667.18738	300.71378	158.69064	-629.44257	307.92163	161.06944	-561.37268	260.84760	165.26389	-596.11591	224.46922	174.52849	-711.47321	155.17455	217.12790	-676.10992	175.64212	158.30835	-796.70966	173.72171	183.99036	-528.22656	304.21063	146.37221	-518.11407	-72.55666	143.15916	-876.05200	-78.61601	141.49716	-882.60101	296.15714	144.67064	
236	4.700	-610.21448	65.83054	1831.17310	-671.61578	-111.42143	1527.02930	-687.66803	243.39258	1533.25061	-627.13702	65.87373	1403.46533	-698.70746	-27.90243	1051.60535	-697.12537	194.03230	1072.94775	-893.21332	87.20030	1027.59937	-737.41443	-86.62662	870.10895	-656.41937	-27.02642	821.90759	-740.75226	-63.12358	713.43457	-712.15076	-44.30628	617.68201	-680.86951	63.37889	581.60638	-715.13385	-40.79736	565.93298	-662.31940	-1.26520	519.57086	-765.07465	-45.59979	487.71182	-771.34418	-10.91481	205.87375	-666.25580	-72.35538	158.62009	-623.79993	-82.12073	156.51617	-562.83124	-39.01594	163.69772	-605.11084	15.95365	170.96622	-717.62262	69.91323	217.58850	-676.83496	50.79017	162.34659	-796.06592	51.72593	175.34314	-727.04352	272.82352	886.93237	-665.73993	204.38582	835.80383	-749.47009	269.27859	753.97028	-751.70404	244.45044	638.66669	-694.43707	142.32912	583.78967	-740.81030	241.25227	578.69324	-680.86511	204.99852	539.16083	-778.90717	250.59103	503.13712	-772.74872	224.17099	204.34854	-667.19714	300.77695	158.59216	-629.45941	307.99301	161.02678	-561.35968	260.90646	165.26939	-596.09766	224.53345	174.56195	-711.42218	155.22606	217.11900	-676.15369	175.78175	158.39548	-796.67590	173.81963	184.02679	-528.22290	304.19873	146.37306	-518.12054	-72.55160	143.18332	-875.99738	-78.61481	141.45479	-882.59882	296.15390	144.66525	
237	4.720	-598.78046	64.09968	1826.28699	-665.75378	-112.49994	1522.96851	-682.08960	242.01967	1530.28003	-624.09851	64.67746	1399.37549	-703.47601	-27.55069	1050.34399	-701.41602	193.56102	1071.38989	-845.40662	114.69455	915.03497	-740.80566	-86.70652	869.25671	-659.26105	-27.25970	821.80878	-742.06891	-63.40572	712.45496	-712.10034	-44.67413	617.39667	-680.50177	62.94015	581.53314	-714.65521	-41.31664	565.71167	-661.86395	-1.78080	519.39020	-764.65002	-46.08765	487.55585	-771.31506	-10.96807	205.86772	-666.24420	-72.37601	158.61090	-623.78491	-82.16606	156.50700	-562.81244	-39.05673	163.67781	-605.12164	15.97214	170.92714	-717.63416	69.88327	217.56573	-676.81396	50.80455	162.32808	-796.08313	51.71103	175.39915	-730.84442	272.88635	886.72723	-669.03613	204.51047	836.09656	-751.63684	269.94089	753.64569	-751.92114	245.15727	638.33130	-694.16241	143.04961	583.79425	-740.51123	242.03041	578.53589	-680.41089	205.71591	539.14227	-778.57092	251.20448	502.99713	-772.74554	224.22984	204.31799	-667.20020	300.82932	158.50845	-629.47980	308.06677	160.97760	-561.32947	260.98419	165.27255	-596.10376	224.58682	174.57233	-711.38202	155.26758	217.13188	-676.18567	175.91721	158.51065	-796.63599	173.94688	184.04614	-528.22211	304.19009	146.39462	-518.11890	-72.56139	143.20294	-875.91821	-78.60193	141.39323	-882.59827	296.15338	144.65399	
238	4.740	-587.28448	62.35487	1820.91040	-659.83521	-113.52379	1518.53455	-676.45764	240.69971	1526.93530	-621.05048	63.56394	1394.93994	-707.94080	-27.54048	1049.09424	-705.81757	193.41986	1069.51990	-775.39197	154.22955	754.13452	-744.18646	-86.80875	868.38885	-662.12836	-27.57126	821.70941	-743.39606	-63.70340	711.44537	-712.08337	-45.05353	617.13245	-680.29382	62.46792	581.45935	-714.24194	-41.84061	565.49701	-661.46667	-2.26513	519.25586	-764.22052	-46.64944	487.37167	-771.28546	-11.03817	205.85030	-666.23602	-72.40500	158.59950	-623.76996	-82.20836	156.50075	-562.78748	-39.09068	163.67377	-605.13733	15.99042	170.88310	-717.69116	69.78898	217.53854	-676.81482	50.82302	162.32431	-796.14105	51.67029	175.46069	-734.72803	272.96323	886.46667	-672.42401	204.66765	836.34412	-753.87732	270.56509	753.23553	-752.12585	245.91379	637.97119	-693.91364	143.83347	583.77386	-740.22009	242.88106	578.40155	-679.93427	206.47401	539.13062	-778.20343	251.84851	502.85617	-772.73560	224.28464	204.27203	-667.19733	300.87631	158.43648	-629.50085	308.13708	160.92458	-561.28198	261.07535	165.27405	-596.12756	224.62956	174.56229	-711.36084	155.29919	217.16771	-676.19733	176.03098	158.63588	-796.59027	174.08688	184.04919	-528.22607	304.19351	146.43262	-518.10852	-72.58080	143.21356	-875.83899	-78.57979	141.33113	-882.59857	296.15457	144.64021	
239	4.760	-575.69031	60.65867	1815.03088	-653.88953	-114.50131	1513.74036	-670.75311	239.42393	1523.20093	-618.08405	62.56570	1390.10876	-712.34705	-27.67192	1047.73157	-710.41681	193.52554	1067.36890	-699.90747	196.84293	580.86938	-747.56360	-86.95654	867.51129	-665.01099	-27.98281	821.66266	-744.79407	-64.04491	710.43604	-712.14825	-45.46243	616.89825	-680.26715	61.96595	581.39984	-713.93054	-42.38656	565.29999	-661.15851	-2.71548	519.18372	-763.85010	-47.27300	487.17511	-771.25989	-11.11708	205.82251	-666.23395	-72.43419	158.58765	-623.75812	-82.23897	156.49947	-562.75989	-39.10876	163.68619	-605.15955	16.01050	170.84132	-717.77960	69.64907	217.52618	-676.84418	50.84306	162.33896	-796.24683	51.60766	175.51772	-738.67639	273.06671	886.15656	-675.89471	204.82594	836.53375	-756.19873	271.09930	752.71027	-752.36584	246.67229	637.58698	-693.69293	144.64597	583.73645	-739.95038	243.75452	578.27649	-679.47437	207.25569	539.10266	-777.81818	252.48357	502.69037	-772.72559	224.33167	204.21736	-667.19312	300.92609	158.36856	-629.51990	308.20190	160.86821	-561.22321	261.17050	165.27414	-596.15704	224.66603	174.54343	-711.35590	155.32765	217.22301	-676.18817	176.11591	158.75238	-796.54236	174.22270	184.04478	-528.23602	304.21094	146.47385	-518.09009	-72.60136	143.21428	-875.79138	-78.55747	141.29158	-882.59833	296.15717	144.62840	
240	4.780	-563.95294	59.05266	1808.63049	-647.96295	-115.44133	1508.61572	-664.96417	238.18530	1519.06921	-615.27240	61.69187	1384.87256	-716.83514	-27.80696	1046.14575	-715.26160	193.73373	1065.01245	-643.01373	229.57016	447.17969	-750.96533	-87.16566	866.60748	-667.90363	-28.48832	821.69928	-746.31580	-64.46043	709.44763	-712.31830	-45.92015	616.69611	-680.38867	61.43739	581.36346	-713.73077	-42.96866	565.12274	-660.94922	-3.15135	519.16370	-763.58899	-47.92921	486.98068	-771.24109	-11.19730	205.78523	-666.23846	-72.45285	158.57927	-623.75214	-82.25341	156.50246	-562.73517	-39.09904	163.71788	-605.19025	16.03687	170.80534	-717.86621	69.50274	217.54929	-676.89697	50.85946	162.36746	-796.38794	51.53450	175.55164	-742.67133	273.18927	885.79547	-679.42371	204.94521	836.65796	-758.58386	271.52496	752.06927	-752.66388	247.39162	637.19104	-693.47559	145.45558	583.70032	-739.69348	244.61147	578.15704	-679.05090	208.04134	539.03540	-777.42328	253.09032	502.49164	-772.72034	224.37103	204.16212	-667.19366	300.98441	158.29948	-629.53503	308.26117	160.80893	-561.16504	261.25867	165.27260	-596.18140	224.70190	174.52951	-711.35913	155.36159	217.29216	-676.16479	176.17609	158.84831	-796.49854	174.34300	184.04579	-528.25140	304.23520	146.50208	-518.06604	-72.61501	143.20894	-875.79651	-78.54554	141.28935	-882.59705	296.16168	144.62204	
241	4.800	-552.03491	57.55080	1801.68689	-642.10986	-116.34534	1503.19922	-659.10095	236.98550	1514.54004	-612.64349	60.92091	1379.27356	-721.40967	-27.90948	1044.29492	-720.31921	193.87708	1062.55444	-625.54712	241.10471	398.26630	-754.41809	-87.44999	865.65369	-670.80396	-29.04458	821.81934	-747.97473	-64.97948	708.48712	-712.57806	-46.44464	616.51819	-680.58600	60.87734	581.35168	-713.62842	-43.58911	564.95007	-660.82330	-3.60627	519.16559	-763.45172	-48.58611	486.79425	-771.22949	-11.27761	205.73911	-666.24780	-72.45321	158.57613	-623.75531	-82.25034	156.50510	-562.72021	-39.04982	163.77264	-605.22992	16.07314	170.77451	-717.91492	69.39084	217.62390	-676.96027	50.86588	162.40062	-796.53607	51.46439	175.54402	-746.68835	273.29382	885.37531	-682.97101	204.98212	836.71747	-760.98273	271.86200	751.34180	-752.99152	248.04765	636.80206	-693.20386	146.23933	583.68915	-739.41235	245.42952	578.04596	-678.64325	208.81200	538.92139	-777.01044	253.67386	502.27347	-772.71985	224.40541	204.11359	-667.20313	301.04959	158.23169	-629.54553	308.31317	160.75047	-561.12103	261.33063	165.26872	-596.19653	224.74074	174.52818	-711.36316	155.40512	217.36862	-676.13672	176.22034	158.92004	-796.46484	174.44171	184.06339	-528.26996	304.25473	146.50667	-518.03961	-72.61684	143.20512	-875.85211	-78.54920	141.32271	-882.59601	296.16827	144.62212	
